# xmcd
#
# Track frame offsets:
#	182
#	13005
#	24855
#	39960
#	58792
#	69302
#	80437
#	102322
#	116472
#	127570
#	146482
#	166487
#	177160
#	192062
#	205670
#	222897
#	234037
#	245770
#
# Disc length: 3469 seconds
#
# Revision: 0
# Processed by: cddbd v1.4PL0 Copyright (c) Steve Scherf et al.
# Submitted via: dBpowerAMP V4.0
#
DISCID=e00d8b12
DTITLE=Various Artist - Peace In The Valley
DYEAR=1995
DGENRE=Christian
TTITLE0=Peace In The Valley
TTITLE1=A Dream Of Peace
TTITLE2=All People That On Earth Do Dwell
TTITLE3=Let Us Humbly Sing Our Praises
TTITLE4=Onward Christian Soldiers
TTITLE5=O Holy Night
TTITLE6=Praise, Praise The Lord
TTITLE7=All In The April Evening
TTITLE8=Praise My Soul The King Of Heaven
TTITLE9=Ave Maria
TTITLE10=Oh Lord Most Holy
TTITLE11=Battle Hymn Of The Republic
TTITLE12=Jesu, Joy Of Man's Desiring
TTITLE13=Unfold Your Portals
TTITLE14=Lord Hear Our Prayer
TTITLE15=Our Wedding
TTITLE16=The Lord's Prayer
TTITLE17=Hallelujah
EXTD=
EXTT0=
EXTT1=
EXTT2=
EXTT3=
EXTT4=
EXTT5=
EXTT6=
EXTT7=
EXTT8=
EXTT9=
EXTT10=
EXTT11=
EXTT12=
EXTT13=
EXTT14=
EXTT15=
EXTT16=
EXTT17=
PLAYORDER=
